# xmcd
#
# Track frame offsets: 
#        150
#        11763
#        29886
#        47527
#        69159
#        87786
#        105313
#        120828
#        136073
#        151371
#        175278
#        189641
#
# Disc length: 2735 seconds
#
# Revision: 0
# Processed by: cddbd v1.5.2PL0 Copyright (c) Steve Scherf et al.
# Submitted via: ExactAudioCopy v0.95b3
#
DISCID=8f0aad0c
DTITLE=Mike Nesmith  - Infinite Rider On The Big Dogma
DYEAR=1900
DGENRE=
TTITLE0=Michael Nesmith - Dance
TTITLE1=Michael Nesmith - Magic
TTITLE2=Michael Nesmith - Tonite
TTITLE3=Michael Nesmith - Flying
TTITLE4=Michael Nesmith - Carioca
TTITLE5=Michael Nesmith - Cruisin'
TTITLE6=Michael Nesmith - Factions
TTITLE7=Michael Nesmith - Light
TTITLE8=Michael Nesmith - Horserace
TTITLE9=Michael Nesmith - Capsule
TTITLE10=Michael Nesmith - Walkin' In The Sand (Rare Bonus Track)
TTITLE11=Michael Nesmith - Rollin' (Rare Bonus Track)
EXTD=
EXTT0=
EXTT1=
EXTT2=
EXTT3=
EXTT4=
EXTT5=
EXTT6=
EXTT7=
EXTT8=
EXTT9=
EXTT10=
EXTT11=
PLAYORDER=
